<mxfile host="app.diagrams.net" modified="2023-08-13T19:14:07.903Z" agent="Mozilla/5.0 (Macintosh; Intel Mac OS X 10_15_7) AppleWebKit/537.36 (KHTML, like Gecko) Chrome/115.0.0.0 Safari/537.36" etag="Cgm9HEhfy4rPFOWKFBJu" version="21.6.1" type="github">
  <diagram name="PÃ¡gina-1" id="9xYNeDQMtR-Gsh-nBc_P">
    <mxGraphModel dx="2385" dy="1325" grid="1" gridSize="10" guides="1" tooltips="1" connect="1" arrows="1" fold="1" page="1" pageScale="1" pageWidth="827" pageHeight="1169" math="0" shadow="0">
      <root>
        <mxCell id="0" />
        <mxCell id="1" parent="0" />
        <mxCell id="3gO5LC552atLHlRaGAxK-76" value="" style="rounded=0;whiteSpace=wrap;html=1;textOpacity=0;" vertex="1" parent="1">
          <mxGeometry x="1470" y="60" width="210" height="350" as="geometry" />
        </mxCell>
        <mxCell id="3gO5LC552atLHlRaGAxK-67" value="" style="rounded=0;whiteSpace=wrap;html=1;textOpacity=0;" vertex="1" parent="1">
          <mxGeometry x="620" y="60" width="850" height="350" as="geometry" />
        </mxCell>
        <mxCell id="3gO5LC552atLHlRaGAxK-65" value="" style="rounded=0;whiteSpace=wrap;html=1;textOpacity=0;" vertex="1" parent="1">
          <mxGeometry x="80" y="60" width="540" height="350" as="geometry" />
        </mxCell>
        <mxCell id="3gO5LC552atLHlRaGAxK-1" value="" style="shape=cube;whiteSpace=wrap;html=1;boundedLbl=1;backgroundOutline=1;darkOpacity=0.05;darkOpacity2=0.1;direction=south;fillColor=#fff2cc;strokeColor=#d6b656;" vertex="1" parent="1">
          <mxGeometry x="100" y="100" width="100" height="240" as="geometry" />
        </mxCell>
        <mxCell id="3gO5LC552atLHlRaGAxK-2" value="96x96x64" style="text;html=1;align=center;verticalAlign=middle;resizable=0;points=[];autosize=1;strokeColor=none;fillColor=none;" vertex="1" parent="1">
          <mxGeometry x="280" y="70" width="80" height="30" as="geometry" />
        </mxCell>
        <mxCell id="3gO5LC552atLHlRaGAxK-3" value="" style="shape=cube;whiteSpace=wrap;html=1;boundedLbl=1;backgroundOutline=1;darkOpacity=0.05;darkOpacity2=0.1;direction=south;fillColor=#fff2cc;strokeColor=#d6b656;" vertex="1" parent="1">
          <mxGeometry x="22" y="510" width="28" height="50" as="geometry" />
        </mxCell>
        <mxCell id="3gO5LC552atLHlRaGAxK-4" value="Convolution + Batch Norm + GeLU" style="text;html=1;align=left;verticalAlign=middle;resizable=0;points=[];autosize=1;strokeColor=none;fillColor=none;" vertex="1" parent="1">
          <mxGeometry x="60" y="520" width="210" height="30" as="geometry" />
        </mxCell>
        <mxCell id="3gO5LC552atLHlRaGAxK-8" value="" style="shape=cube;whiteSpace=wrap;html=1;boundedLbl=1;backgroundOutline=1;darkOpacity=0.05;darkOpacity2=0.1;direction=south;fillColor=#fff2cc;strokeColor=#d6b656;" vertex="1" parent="1">
          <mxGeometry x="260" y="100" width="100" height="240" as="geometry" />
        </mxCell>
        <mxCell id="3gO5LC552atLHlRaGAxK-11" value="" style="shape=cube;whiteSpace=wrap;html=1;boundedLbl=1;backgroundOutline=1;darkOpacity=0.05;darkOpacity2=0.1;direction=south;fillColor=#f5f5f5;strokeColor=#666666;fontColor=#333333;" vertex="1" parent="1">
          <mxGeometry x="40" y="100" width="25" height="240" as="geometry" />
        </mxCell>
        <mxCell id="3gO5LC552atLHlRaGAxK-12" value="96x96x1" style="text;html=1;align=center;verticalAlign=middle;resizable=0;points=[];autosize=1;strokeColor=none;fillColor=none;" vertex="1" parent="1">
          <mxGeometry x="15" y="70" width="70" height="30" as="geometry" />
        </mxCell>
        <mxCell id="3gO5LC552atLHlRaGAxK-13" value="" style="shape=cube;whiteSpace=wrap;html=1;boundedLbl=1;backgroundOutline=1;darkOpacity=0.05;darkOpacity2=0.1;direction=south;fillColor=#f5f5f5;strokeColor=#666666;fontColor=#333333;" vertex="1" parent="1">
          <mxGeometry x="23" y="460" width="28" height="50" as="geometry" />
        </mxCell>
        <mxCell id="3gO5LC552atLHlRaGAxK-14" value="Observation" style="text;html=1;align=left;verticalAlign=middle;resizable=0;points=[];autosize=1;strokeColor=none;fillColor=none;" vertex="1" parent="1">
          <mxGeometry x="60" y="470" width="90" height="30" as="geometry" />
        </mxCell>
        <mxCell id="3gO5LC552atLHlRaGAxK-15" value="" style="endArrow=classic;html=1;rounded=0;" edge="1" parent="1">
          <mxGeometry width="50" height="50" relative="1" as="geometry">
            <mxPoint x="60" y="230" as="sourcePoint" />
            <mxPoint x="100" y="230" as="targetPoint" />
          </mxGeometry>
        </mxCell>
        <mxCell id="3gO5LC552atLHlRaGAxK-16" value="" style="verticalLabelPosition=bottom;verticalAlign=top;html=1;shape=mxgraph.flowchart.summing_function;" vertex="1" parent="1">
          <mxGeometry x="380" y="210" width="40" height="40" as="geometry" />
        </mxCell>
        <mxCell id="3gO5LC552atLHlRaGAxK-17" value="" style="endArrow=classic;html=1;rounded=0;entryX=0.5;entryY=1;entryDx=0;entryDy=0;entryPerimeter=0;" edge="1" parent="1" target="3gO5LC552atLHlRaGAxK-16">
          <mxGeometry width="50" height="50" relative="1" as="geometry">
            <mxPoint x="230" y="230" as="sourcePoint" />
            <mxPoint x="100" y="410" as="targetPoint" />
            <Array as="points">
              <mxPoint x="230" y="360" />
              <mxPoint x="230" y="370" />
              <mxPoint x="400" y="370" />
            </Array>
          </mxGeometry>
        </mxCell>
        <mxCell id="3gO5LC552atLHlRaGAxK-19" value="" style="shape=image;html=1;verticalAlign=top;verticalLabelPosition=bottom;labelBackgroundColor=#ffffff;imageAspect=0;aspect=fixed;image=https://cdn0.iconfinder.com/data/icons/math-business-icon-set/93/1_4-128.png" vertex="1" parent="1">
          <mxGeometry x="446" y="210" width="40" height="40" as="geometry" />
        </mxCell>
        <mxCell id="3gO5LC552atLHlRaGAxK-21" value="" style="endArrow=classic;html=1;rounded=0;entryX=0;entryY=0.5;entryDx=0;entryDy=0;exitX=1;exitY=0.5;exitDx=0;exitDy=0;exitPerimeter=0;" edge="1" parent="1" source="3gO5LC552atLHlRaGAxK-16" target="3gO5LC552atLHlRaGAxK-19">
          <mxGeometry width="50" height="50" relative="1" as="geometry">
            <mxPoint x="546" y="220" as="sourcePoint" />
            <mxPoint x="321" y="229.5" as="targetPoint" />
          </mxGeometry>
        </mxCell>
        <mxCell id="3gO5LC552atLHlRaGAxK-22" value="&lt;font style=&quot;font-size: 14px;&quot;&gt;1.414&lt;/font&gt;" style="text;html=1;align=center;verticalAlign=middle;resizable=0;points=[];autosize=1;strokeColor=none;fillColor=none;" vertex="1" parent="1">
          <mxGeometry x="436" y="260" width="60" height="30" as="geometry" />
        </mxCell>
        <mxCell id="3gO5LC552atLHlRaGAxK-24" value="96x96x64" style="text;html=1;align=center;verticalAlign=middle;resizable=0;points=[];autosize=1;strokeColor=none;fillColor=none;" vertex="1" parent="1">
          <mxGeometry x="122" y="70" width="80" height="30" as="geometry" />
        </mxCell>
        <mxCell id="3gO5LC552atLHlRaGAxK-25" value="" style="shape=cube;whiteSpace=wrap;html=1;boundedLbl=1;backgroundOutline=1;darkOpacity=0.05;darkOpacity2=0.1;direction=south;fillColor=#f8cecc;strokeColor=#b85450;" vertex="1" parent="1">
          <mxGeometry x="510" y="170" width="100" height="120" as="geometry" />
        </mxCell>
        <mxCell id="3gO5LC552atLHlRaGAxK-28" value="" style="verticalLabelPosition=bottom;verticalAlign=top;html=1;shape=mxgraph.flowchart.summing_function;" vertex="1" parent="1">
          <mxGeometry x="1100" y="210" width="40" height="40" as="geometry" />
        </mxCell>
        <mxCell id="3gO5LC552atLHlRaGAxK-29" value="" style="endArrow=classic;html=1;rounded=0;entryX=0.5;entryY=1;entryDx=0;entryDy=0;entryPerimeter=0;" edge="1" parent="1" target="3gO5LC552atLHlRaGAxK-28">
          <mxGeometry width="50" height="50" relative="1" as="geometry">
            <mxPoint x="840" y="240" as="sourcePoint" />
            <mxPoint x="960" y="410" as="targetPoint" />
            <Array as="points">
              <mxPoint x="840" y="370" />
              <mxPoint x="1050" y="370" />
              <mxPoint x="1070" y="370" />
              <mxPoint x="1120" y="370" />
            </Array>
          </mxGeometry>
        </mxCell>
        <mxCell id="3gO5LC552atLHlRaGAxK-31" value="" style="shape=image;html=1;verticalAlign=top;verticalLabelPosition=bottom;labelBackgroundColor=#ffffff;imageAspect=0;aspect=fixed;image=https://cdn0.iconfinder.com/data/icons/math-business-icon-set/93/1_4-128.png" vertex="1" parent="1">
          <mxGeometry x="1170" y="210" width="40" height="40" as="geometry" />
        </mxCell>
        <mxCell id="3gO5LC552atLHlRaGAxK-33" value="" style="endArrow=classic;html=1;rounded=0;entryX=0;entryY=0.5;entryDx=0;entryDy=0;" edge="1" parent="1" target="3gO5LC552atLHlRaGAxK-31">
          <mxGeometry width="50" height="50" relative="1" as="geometry">
            <mxPoint x="1140" y="229.5" as="sourcePoint" />
            <mxPoint x="1168" y="229.5" as="targetPoint" />
          </mxGeometry>
        </mxCell>
        <mxCell id="3gO5LC552atLHlRaGAxK-34" value="48x48x128" style="text;html=1;align=center;verticalAlign=middle;resizable=0;points=[];autosize=1;strokeColor=none;fillColor=none;" vertex="1" parent="1">
          <mxGeometry x="690" y="130" width="80" height="30" as="geometry" />
        </mxCell>
        <mxCell id="3gO5LC552atLHlRaGAxK-43" value="" style="endArrow=classic;html=1;rounded=0;entryX=0;entryY=0;entryDx=130;entryDy=100;entryPerimeter=0;" edge="1" parent="1" target="3gO5LC552atLHlRaGAxK-8">
          <mxGeometry width="50" height="50" relative="1" as="geometry">
            <mxPoint x="190" y="229.84" as="sourcePoint" />
            <mxPoint x="230" y="229.84" as="targetPoint" />
          </mxGeometry>
        </mxCell>
        <mxCell id="3gO5LC552atLHlRaGAxK-45" value="" style="endArrow=classic;html=1;rounded=0;entryX=0;entryY=0.5;entryDx=0;entryDy=0;entryPerimeter=0;" edge="1" parent="1" target="3gO5LC552atLHlRaGAxK-16">
          <mxGeometry width="50" height="50" relative="1" as="geometry">
            <mxPoint x="344" y="229.75" as="sourcePoint" />
            <mxPoint x="414" y="229.91" as="targetPoint" />
          </mxGeometry>
        </mxCell>
        <mxCell id="3gO5LC552atLHlRaGAxK-47" value="" style="shape=cube;whiteSpace=wrap;html=1;boundedLbl=1;backgroundOutline=1;darkOpacity=0.05;darkOpacity2=0.1;direction=south;fillColor=#f8cecc;strokeColor=#b85450;" vertex="1" parent="1">
          <mxGeometry x="23" y="560" width="28" height="50" as="geometry" />
        </mxCell>
        <mxCell id="3gO5LC552atLHlRaGAxK-48" value="MaxPool" style="text;html=1;align=left;verticalAlign=middle;resizable=0;points=[];autosize=1;strokeColor=none;fillColor=none;" vertex="1" parent="1">
          <mxGeometry x="60" y="569" width="70" height="30" as="geometry" />
        </mxCell>
        <mxCell id="3gO5LC552atLHlRaGAxK-49" value="" style="endArrow=classic;html=1;rounded=0;entryX=0;entryY=0.5;entryDx=0;entryDy=0;exitX=1;exitY=0.5;exitDx=0;exitDy=0;exitPerimeter=0;" edge="1" parent="1">
          <mxGeometry width="50" height="50" relative="1" as="geometry">
            <mxPoint x="484" y="229.92" as="sourcePoint" />
            <mxPoint x="510" y="229.92" as="targetPoint" />
          </mxGeometry>
        </mxCell>
        <mxCell id="3gO5LC552atLHlRaGAxK-50" value="" style="shape=cube;whiteSpace=wrap;html=1;boundedLbl=1;backgroundOutline=1;darkOpacity=0.05;darkOpacity2=0.1;direction=south;fillColor=#fff2cc;strokeColor=#d6b656;" vertex="1" parent="1">
          <mxGeometry x="630" y="170" width="200" height="120" as="geometry" />
        </mxCell>
        <mxCell id="3gO5LC552atLHlRaGAxK-51" value="" style="shape=cube;whiteSpace=wrap;html=1;boundedLbl=1;backgroundOutline=1;darkOpacity=0.05;darkOpacity2=0.1;direction=south;fillColor=#fff2cc;strokeColor=#d6b656;" vertex="1" parent="1">
          <mxGeometry x="850" y="170" width="200" height="120" as="geometry" />
        </mxCell>
        <mxCell id="3gO5LC552atLHlRaGAxK-20" value="" style="endArrow=classic;html=1;rounded=0;entryX=0;entryY=0;entryDx=70;entryDy=200;entryPerimeter=0;" edge="1" parent="1" target="3gO5LC552atLHlRaGAxK-50">
          <mxGeometry width="50" height="50" relative="1" as="geometry">
            <mxPoint x="600" y="240" as="sourcePoint" />
            <mxPoint x="687" y="240.5" as="targetPoint" />
          </mxGeometry>
        </mxCell>
        <mxCell id="3gO5LC552atLHlRaGAxK-52" value="" style="endArrow=classic;html=1;rounded=0;entryX=0;entryY=0;entryDx=70;entryDy=200;entryPerimeter=0;" edge="1" parent="1">
          <mxGeometry width="50" height="50" relative="1" as="geometry">
            <mxPoint x="820" y="240" as="sourcePoint" />
            <mxPoint x="850" y="240" as="targetPoint" />
          </mxGeometry>
        </mxCell>
        <mxCell id="3gO5LC552atLHlRaGAxK-53" value="48x48x128" style="text;html=1;align=center;verticalAlign=middle;resizable=0;points=[];autosize=1;strokeColor=none;fillColor=none;" vertex="1" parent="1">
          <mxGeometry x="910" y="130" width="80" height="30" as="geometry" />
        </mxCell>
        <mxCell id="3gO5LC552atLHlRaGAxK-30" value="" style="endArrow=classic;html=1;rounded=0;" edge="1" parent="1">
          <mxGeometry width="50" height="50" relative="1" as="geometry">
            <mxPoint x="1040" y="229.5" as="sourcePoint" />
            <mxPoint x="1100" y="229.5" as="targetPoint" />
          </mxGeometry>
        </mxCell>
        <mxCell id="3gO5LC552atLHlRaGAxK-54" value="&lt;font style=&quot;font-size: 14px;&quot;&gt;1.414&lt;/font&gt;" style="text;html=1;align=center;verticalAlign=middle;resizable=0;points=[];autosize=1;strokeColor=none;fillColor=none;" vertex="1" parent="1">
          <mxGeometry x="1160" y="260" width="60" height="30" as="geometry" />
        </mxCell>
        <mxCell id="3gO5LC552atLHlRaGAxK-55" value="" style="shape=cube;whiteSpace=wrap;html=1;boundedLbl=1;backgroundOutline=1;darkOpacity=0.05;darkOpacity2=0.1;direction=south;fillColor=#f8cecc;strokeColor=#b85450;" vertex="1" parent="1">
          <mxGeometry x="1250" y="200" width="200" height="60" as="geometry" />
        </mxCell>
        <mxCell id="3gO5LC552atLHlRaGAxK-58" value="48x48x64" style="text;html=1;align=center;verticalAlign=middle;resizable=0;points=[];autosize=1;strokeColor=none;fillColor=none;" vertex="1" parent="1">
          <mxGeometry x="530" y="130" width="80" height="30" as="geometry" />
        </mxCell>
        <mxCell id="3gO5LC552atLHlRaGAxK-59" value="24x24x128" style="text;html=1;align=center;verticalAlign=middle;resizable=0;points=[];autosize=1;strokeColor=none;fillColor=none;" vertex="1" parent="1">
          <mxGeometry x="1295" y="160" width="80" height="30" as="geometry" />
        </mxCell>
        <mxCell id="3gO5LC552atLHlRaGAxK-64" value="" style="endArrow=classic;html=1;rounded=0;entryX=0.492;entryY=1.01;entryDx=0;entryDy=0;entryPerimeter=0;" edge="1" parent="1" target="3gO5LC552atLHlRaGAxK-55">
          <mxGeometry width="50" height="50" relative="1" as="geometry">
            <mxPoint x="1210" y="230" as="sourcePoint" />
            <mxPoint x="1240.2" y="230" as="targetPoint" />
          </mxGeometry>
        </mxCell>
        <mxCell id="3gO5LC552atLHlRaGAxK-66" value="&lt;font style=&quot;font-size: 20px;&quot;&gt;Model_cnn_mlp.conv_down1&lt;/font&gt;" style="text;html=1;align=center;verticalAlign=middle;resizable=0;points=[];autosize=1;strokeColor=none;fillColor=none;" vertex="1" parent="1">
          <mxGeometry x="140" y="403" width="280" height="40" as="geometry" />
        </mxCell>
        <mxCell id="3gO5LC552atLHlRaGAxK-68" value="&lt;font style=&quot;font-size: 20px;&quot;&gt;Model_cnn_mlp.conv_down3&lt;/font&gt;" style="text;html=1;align=center;verticalAlign=middle;resizable=0;points=[];autosize=1;strokeColor=none;fillColor=none;" vertex="1" parent="1">
          <mxGeometry x="870" y="405" width="280" height="40" as="geometry" />
        </mxCell>
        <mxCell id="3gO5LC552atLHlRaGAxK-69" value="" style="shape=cube;whiteSpace=wrap;html=1;boundedLbl=1;backgroundOutline=1;darkOpacity=0.05;darkOpacity2=0.1;direction=south;fillColor=#f8cecc;strokeColor=#b85450;" vertex="1" parent="1">
          <mxGeometry x="1500" y="217.5" width="170" height="25" as="geometry" />
        </mxCell>
        <mxCell id="3gO5LC552atLHlRaGAxK-70" value="3x3x128" style="text;html=1;align=center;verticalAlign=middle;resizable=0;points=[];autosize=1;strokeColor=none;fillColor=none;" vertex="1" parent="1">
          <mxGeometry x="1565" y="180" width="70" height="30" as="geometry" />
        </mxCell>
        <mxCell id="3gO5LC552atLHlRaGAxK-72" value="" style="shape=cube;whiteSpace=wrap;html=1;boundedLbl=1;backgroundOutline=1;darkOpacity=0.05;darkOpacity2=0.1;direction=south;fillColor=#d5e8d4;strokeColor=#82b366;" vertex="1" parent="1">
          <mxGeometry x="1700" y="229" width="500" height="3" as="geometry" />
        </mxCell>
        <mxCell id="3gO5LC552atLHlRaGAxK-73" value="1x1152" style="text;html=1;align=center;verticalAlign=middle;resizable=0;points=[];autosize=1;strokeColor=none;fillColor=none;" vertex="1" parent="1">
          <mxGeometry x="1915" y="190" width="60" height="30" as="geometry" />
        </mxCell>
        <mxCell id="3gO5LC552atLHlRaGAxK-74" value="" style="endArrow=classic;html=1;rounded=0;entryX=0.58;entryY=1;entryDx=0;entryDy=0;entryPerimeter=0;" edge="1" parent="1" target="3gO5LC552atLHlRaGAxK-69">
          <mxGeometry width="50" height="50" relative="1" as="geometry">
            <mxPoint x="1432" y="232" as="sourcePoint" />
            <mxPoint x="1470" y="232" as="targetPoint" />
          </mxGeometry>
        </mxCell>
        <mxCell id="3gO5LC552atLHlRaGAxK-75" value="" style="endArrow=classic;html=1;rounded=0;entryX=0.492;entryY=1.01;entryDx=0;entryDy=0;entryPerimeter=0;" edge="1" parent="1">
          <mxGeometry width="50" height="50" relative="1" as="geometry">
            <mxPoint x="1662" y="232" as="sourcePoint" />
            <mxPoint x="1700" y="232" as="targetPoint" />
          </mxGeometry>
        </mxCell>
        <mxCell id="3gO5LC552atLHlRaGAxK-77" value="&lt;font style=&quot;font-size: 20px;&quot;&gt;Model_cnn_mlp.imageembed&lt;/font&gt;" style="text;html=1;align=center;verticalAlign=middle;resizable=0;points=[];autosize=1;strokeColor=none;fillColor=none;" vertex="1" parent="1">
          <mxGeometry x="1430" y="410" width="290" height="40" as="geometry" />
        </mxCell>
        <mxCell id="3gO5LC552atLHlRaGAxK-78" value="" style="shape=cube;whiteSpace=wrap;html=1;boundedLbl=1;backgroundOutline=1;darkOpacity=0.05;darkOpacity2=0.1;direction=south;fillColor=#d5e8d4;strokeColor=#82b366;" vertex="1" parent="1">
          <mxGeometry x="23" y="610" width="28" height="50" as="geometry" />
        </mxCell>
        <mxCell id="3gO5LC552atLHlRaGAxK-79" value="Image Embed" style="text;html=1;align=left;verticalAlign=middle;resizable=0;points=[];autosize=1;strokeColor=none;fillColor=none;" vertex="1" parent="1">
          <mxGeometry x="60" y="619" width="100" height="30" as="geometry" />
        </mxCell>
      </root>
    </mxGraphModel>
  </diagram>
</mxfile>
